<mxfile host="app.diagrams.net" modified="2024-03-19T17:09:49.303Z" agent="Mozilla/5.0 (X11; Linux x86_64) AppleWebKit/537.36 (KHTML, like Gecko) Chrome/114.0.0.0 YaBrowser/23.7.1.1215 Yowser/2.5 Safari/537.36" etag="0KuUES6FPLBTE2V-8ZTu" version="24.0.0" type="google">
  <diagram name="Страница — 1" id="MH61HzPOYw3jRmHRbHwu">
    <mxGraphModel dx="756" dy="579" grid="1" gridSize="10" guides="1" tooltips="1" connect="1" arrows="1" fold="1" page="1" pageScale="1" pageWidth="827" pageHeight="1169" math="0" shadow="0">
      <root>
        <mxCell id="0" />
        <mxCell id="1" parent="0" />
        <mxCell id="UEDwccZIC5M49zajDDGO-2" value="Фигуристы" style="whiteSpace=wrap;html=1;align=center;" vertex="1" parent="1">
          <mxGeometry x="350" y="260" width="100" height="40" as="geometry" />
        </mxCell>
        <mxCell id="UEDwccZIC5M49zajDDGO-3" value="Сорвенования" style="whiteSpace=wrap;html=1;align=center;" vertex="1" parent="1">
          <mxGeometry x="350" y="480" width="100" height="40" as="geometry" />
        </mxCell>
        <mxCell id="UEDwccZIC5M49zajDDGO-4" value="Медали" style="whiteSpace=wrap;html=1;align=center;" vertex="1" parent="1">
          <mxGeometry x="350" y="360" width="100" height="40" as="geometry" />
        </mxCell>
        <mxCell id="UEDwccZIC5M49zajDDGO-5" value="Тренера" style="whiteSpace=wrap;html=1;align=center;" vertex="1" parent="1">
          <mxGeometry x="350" y="80" width="100" height="40" as="geometry" />
        </mxCell>
        <mxCell id="UEDwccZIC5M49zajDDGO-6" value="Разряды" style="whiteSpace=wrap;html=1;align=center;" vertex="1" parent="1">
          <mxGeometry x="130" y="260" width="100" height="40" as="geometry" />
        </mxCell>
        <mxCell id="UEDwccZIC5M49zajDDGO-8" value="" style="edgeStyle=entityRelationEdgeStyle;fontSize=12;html=1;endArrow=ERzeroToMany;startArrow=ERmandOne;rounded=0;entryX=0;entryY=0.5;entryDx=0;entryDy=0;" edge="1" parent="1" target="UEDwccZIC5M49zajDDGO-2">
          <mxGeometry width="100" height="100" relative="1" as="geometry">
            <mxPoint x="230" y="280" as="sourcePoint" />
            <mxPoint x="330" y="180" as="targetPoint" />
          </mxGeometry>
        </mxCell>
        <mxCell id="UEDwccZIC5M49zajDDGO-12" value="" style="fontSize=12;html=1;endArrow=ERoneToMany;startArrow=ERoneToMany;rounded=0;exitX=0.377;exitY=1.011;exitDx=0;exitDy=0;exitPerimeter=0;startFill=0;" edge="1" parent="1">
          <mxGeometry width="100" height="100" relative="1" as="geometry">
            <mxPoint x="398.85" y="120.00000000000006" as="sourcePoint" />
            <mxPoint x="400" y="260" as="targetPoint" />
          </mxGeometry>
        </mxCell>
        <mxCell id="UEDwccZIC5M49zajDDGO-13" value="" style="fontSize=12;html=1;endArrow=ERzeroToMany;startArrow=ERmandOne;rounded=0;entryX=0.5;entryY=0;entryDx=0;entryDy=0;exitX=0.5;exitY=1;exitDx=0;exitDy=0;" edge="1" parent="1" source="UEDwccZIC5M49zajDDGO-2" target="UEDwccZIC5M49zajDDGO-4">
          <mxGeometry width="100" height="100" relative="1" as="geometry">
            <mxPoint x="300" y="340" as="sourcePoint" />
            <mxPoint x="400" y="240" as="targetPoint" />
          </mxGeometry>
        </mxCell>
        <mxCell id="UEDwccZIC5M49zajDDGO-14" value="" style="fontSize=12;html=1;endArrow=ERoneToMany;startArrow=ERmandOne;rounded=0;entryX=0.5;entryY=1;entryDx=0;entryDy=0;exitX=0.5;exitY=0;exitDx=0;exitDy=0;" edge="1" parent="1" source="UEDwccZIC5M49zajDDGO-3" target="UEDwccZIC5M49zajDDGO-4">
          <mxGeometry width="100" height="100" relative="1" as="geometry">
            <mxPoint x="300" y="510" as="sourcePoint" />
            <mxPoint x="400" y="410" as="targetPoint" />
          </mxGeometry>
        </mxCell>
      </root>
    </mxGraphModel>
  </diagram>
</mxfile>
